<svg xmlns="http://www.w3.org/2000/svg" version="1.0" width="200.000000" height="200.000000" preserveAspectRatio="xMidYMid meet"><rect id="backgroundrect" width="100%" height="100%" x="0" y="0" fill="none" stroke="none"/>
<metadata>
Created by potrace 1.14, written by Peter Selinger 2001-2017
</metadata>

<g class="currentLayer"><title>Layer 1</title><g transform="translate(0,200) scale(0.10000000149011612,-0.10000000149011612) " fill="#eb1a1a" stroke="#ff0f0f" id="svg_1" class="selected" stroke-opacity="1" fill-opacity="1">
<path d="M835.4812393020917,1938.2357538402302 c-358.7676315307617,-66.98309695720673 -638.120552957058,-325.73971807956696 -738.0896586179733,-681.7594662904739 c-28.963011920452118,-101.85101044178009 -28.963011920452118,-342.25609815120697 0,-443.1895319223404 c143.88076889514923,-515.6780889034271 676.4264719486237,-809.3026235103607 1182.81203520298,-653.3145895004272 c538.1514472961426,165.16380071640015 808.1614616513252,759.7534832954407 570.8516220450401,1256.1624621152878 c-52.320279598236084,111.02677714824677 -105.57484990358353,186.2680641412735 -187.7924321293831,267.01481115818024 c-115.85204768180847,113.77950716018677 -270.944305062294,200.94929087162018 -432.57659739255905,243.15781772136688 c-94.36336141824722,23.856993436813354 -295.23586344718933,30.280030131340027 -395.2049691081047,11.928496718406677 zm1.8685814142227173,-679.0067362785339 l0,-133.04861724376678 l168.17232728004456,0 l168.17232728004456,0 l0,133.04861724376678 l0,133.04861724376678 l93.42907071113586,0 l93.42907071113586,0 l0,-357.8549015522003 l0,-357.8549015522003 l-93.42907071113586,0 l-93.42907071113586,0 l0,133.04861724376678 l0,133.04861724376678 l-168.17232728004456,0 l-168.17232728004456,0 l0,-133.04861724376678 l0,-133.04861724376678 l-93.42907071113586,0 l-93.42907071113586,0 l0,357.8549015522003 l0,357.8549015522003 l93.42907071113586,0 l93.42907071113586,0 l0,-133.04861724376678 z" id="svg_2" stroke="#ff0f0f" fill="#eb1a1a" fill-opacity="1"/>
</g></g></svg>